<mxfile host="app.diagrams.net" agent="Mozilla/5.0 (Windows NT 10.0; Win64; x64) AppleWebKit/537.36 (KHTML, like Gecko) Chrome/130.0.0.0 Safari/537.36" version="24.8.4">
  <diagram name="Page-1" id="Ly36AXgYDEEfPLhHWcKv">
    <mxGraphModel dx="1798" dy="886" grid="1" gridSize="10" guides="1" tooltips="1" connect="1" arrows="1" fold="1" page="1" pageScale="1" pageWidth="850" pageHeight="1100" math="0" shadow="0">
      <root>
        <mxCell id="0" />
        <mxCell id="1" parent="0" />
        <mxCell id="0mBJ9B0nIkSUzQoLvOGi-140" value="User" style="shape=umlActor;verticalLabelPosition=bottom;verticalAlign=top;html=1;outlineConnect=0;" parent="1" vertex="1">
          <mxGeometry x="70" y="400" width="50" height="60" as="geometry" />
        </mxCell>
        <mxCell id="0mBJ9B0nIkSUzQoLvOGi-143" value="Owner" style="shape=umlActor;verticalLabelPosition=bottom;verticalAlign=top;html=1;outlineConnect=0;" parent="1" vertex="1">
          <mxGeometry x="740" y="405" width="50" height="60" as="geometry" />
        </mxCell>
        <mxCell id="0mBJ9B0nIkSUzQoLvOGi-152" value="" style="ellipse;whiteSpace=wrap;html=1;" parent="1" vertex="1">
          <mxGeometry x="360" y="650" width="200" height="80" as="geometry" />
        </mxCell>
        <mxCell id="0mBJ9B0nIkSUzQoLvOGi-153" value="" style="ellipse;whiteSpace=wrap;html=1;" parent="1" vertex="1">
          <mxGeometry x="360" y="530" width="200" height="80" as="geometry" />
        </mxCell>
        <mxCell id="0mBJ9B0nIkSUzQoLvOGi-154" value="" style="ellipse;whiteSpace=wrap;html=1;" parent="1" vertex="1">
          <mxGeometry x="355" y="410" width="200" height="80" as="geometry" />
        </mxCell>
        <mxCell id="0mBJ9B0nIkSUzQoLvOGi-155" value="" style="ellipse;whiteSpace=wrap;html=1;" parent="1" vertex="1">
          <mxGeometry x="350" y="290" width="200" height="80" as="geometry" />
        </mxCell>
        <mxCell id="0mBJ9B0nIkSUzQoLvOGi-156" value="" style="ellipse;whiteSpace=wrap;html=1;" parent="1" vertex="1">
          <mxGeometry x="350" y="170" width="200" height="80" as="geometry" />
        </mxCell>
        <mxCell id="0mBJ9B0nIkSUzQoLvOGi-157" value="" style="ellipse;whiteSpace=wrap;html=1;" parent="1" vertex="1">
          <mxGeometry x="350" y="40" width="200" height="80" as="geometry" />
        </mxCell>
        <mxCell id="0mBJ9B0nIkSUzQoLvOGi-158" value="Register" style="text;html=1;align=center;verticalAlign=middle;whiteSpace=wrap;rounded=0;" parent="1" vertex="1">
          <mxGeometry x="420" y="65" width="60" height="30" as="geometry" />
        </mxCell>
        <mxCell id="0mBJ9B0nIkSUzQoLvOGi-159" value="Login" style="text;html=1;align=center;verticalAlign=middle;whiteSpace=wrap;rounded=0;" parent="1" vertex="1">
          <mxGeometry x="420" y="190" width="60" height="30" as="geometry" />
        </mxCell>
        <mxCell id="0mBJ9B0nIkSUzQoLvOGi-160" value="Search" style="text;html=1;align=center;verticalAlign=middle;whiteSpace=wrap;rounded=0;" parent="1" vertex="1">
          <mxGeometry x="420" y="315" width="60" height="30" as="geometry" />
        </mxCell>
        <mxCell id="0mBJ9B0nIkSUzQoLvOGi-161" value="Sort/Filter" style="text;html=1;align=center;verticalAlign=middle;whiteSpace=wrap;rounded=0;" parent="1" vertex="1">
          <mxGeometry x="425" y="435" width="60" height="30" as="geometry" />
        </mxCell>
        <mxCell id="0mBJ9B0nIkSUzQoLvOGi-162" value="View" style="text;html=1;align=center;verticalAlign=middle;whiteSpace=wrap;rounded=0;" parent="1" vertex="1">
          <mxGeometry x="425" y="550" width="60" height="30" as="geometry" />
        </mxCell>
        <mxCell id="0mBJ9B0nIkSUzQoLvOGi-163" value="Book" style="text;html=1;align=center;verticalAlign=middle;whiteSpace=wrap;rounded=0;" parent="1" vertex="1">
          <mxGeometry x="425" y="675" width="60" height="30" as="geometry" />
        </mxCell>
        <mxCell id="0mBJ9B0nIkSUzQoLvOGi-164" value="" style="ellipse;whiteSpace=wrap;html=1;" parent="1" vertex="1">
          <mxGeometry x="360" y="760" width="200" height="80" as="geometry" />
        </mxCell>
        <mxCell id="0mBJ9B0nIkSUzQoLvOGi-165" value="Payment" style="text;html=1;align=center;verticalAlign=middle;whiteSpace=wrap;rounded=0;" parent="1" vertex="1">
          <mxGeometry x="430" y="785" width="60" height="30" as="geometry" />
        </mxCell>
        <mxCell id="0mBJ9B0nIkSUzQoLvOGi-169" value="" style="endArrow=classic;html=1;rounded=0;" parent="1" edge="1">
          <mxGeometry width="50" height="50" relative="1" as="geometry">
            <mxPoint x="120" y="380" as="sourcePoint" />
            <mxPoint x="340" y="110" as="targetPoint" />
          </mxGeometry>
        </mxCell>
        <mxCell id="0mBJ9B0nIkSUzQoLvOGi-170" value="" style="endArrow=classic;html=1;rounded=0;entryX=0.028;entryY=0.808;entryDx=0;entryDy=0;entryPerimeter=0;" parent="1" target="0mBJ9B0nIkSUzQoLvOGi-156" edge="1">
          <mxGeometry width="50" height="50" relative="1" as="geometry">
            <mxPoint x="140" y="390" as="sourcePoint" />
            <mxPoint x="270" y="320" as="targetPoint" />
          </mxGeometry>
        </mxCell>
        <mxCell id="0mBJ9B0nIkSUzQoLvOGi-171" value="" style="endArrow=classic;html=1;rounded=0;entryX=0.002;entryY=0.7;entryDx=0;entryDy=0;entryPerimeter=0;" parent="1" target="0mBJ9B0nIkSUzQoLvOGi-155" edge="1">
          <mxGeometry width="50" height="50" relative="1" as="geometry">
            <mxPoint x="150" y="410.00125382262996" as="sourcePoint" />
            <mxPoint x="386.6" y="335.90999999999997" as="targetPoint" />
          </mxGeometry>
        </mxCell>
        <mxCell id="0mBJ9B0nIkSUzQoLvOGi-172" value="" style="endArrow=classic;html=1;rounded=0;" parent="1" edge="1">
          <mxGeometry width="50" height="50" relative="1" as="geometry">
            <mxPoint x="140" y="435" as="sourcePoint" />
            <mxPoint x="350" y="455" as="targetPoint" />
          </mxGeometry>
        </mxCell>
        <mxCell id="0mBJ9B0nIkSUzQoLvOGi-173" value="" style="endArrow=classic;html=1;rounded=0;exitX=0.813;exitY=0.96;exitDx=0;exitDy=0;exitPerimeter=0;" parent="1" edge="1">
          <mxGeometry width="50" height="50" relative="1" as="geometry">
            <mxPoint x="129.99999999999991" y="457.9999999999999" as="sourcePoint" />
            <mxPoint x="370" y="540" as="targetPoint" />
          </mxGeometry>
        </mxCell>
        <mxCell id="0mBJ9B0nIkSUzQoLvOGi-174" value="" style="endArrow=classic;html=1;rounded=0;" parent="1" edge="1">
          <mxGeometry width="50" height="50" relative="1" as="geometry">
            <mxPoint x="120" y="470" as="sourcePoint" />
            <mxPoint x="350" y="670" as="targetPoint" />
          </mxGeometry>
        </mxCell>
        <mxCell id="0mBJ9B0nIkSUzQoLvOGi-178" value="" style="endArrow=classic;html=1;rounded=0;" parent="1" edge="1">
          <mxGeometry width="50" height="50" relative="1" as="geometry">
            <mxPoint x="110" y="500" as="sourcePoint" />
            <mxPoint x="360" y="800" as="targetPoint" />
          </mxGeometry>
        </mxCell>
        <mxCell id="0mBJ9B0nIkSUzQoLvOGi-179" value="" style="endArrow=classic;html=1;rounded=0;" parent="1" edge="1">
          <mxGeometry width="50" height="50" relative="1" as="geometry">
            <mxPoint x="760" y="390" as="sourcePoint" />
            <mxPoint x="560" y="100" as="targetPoint" />
            <Array as="points" />
          </mxGeometry>
        </mxCell>
        <mxCell id="0mBJ9B0nIkSUzQoLvOGi-180" value="" style="endArrow=classic;html=1;rounded=0;" parent="1" edge="1">
          <mxGeometry width="50" height="50" relative="1" as="geometry">
            <mxPoint x="740" y="410" as="sourcePoint" />
            <mxPoint x="550" y="240" as="targetPoint" />
          </mxGeometry>
        </mxCell>
        <mxCell id="0mBJ9B0nIkSUzQoLvOGi-181" value="" style="endArrow=classic;html=1;rounded=0;" parent="1" edge="1">
          <mxGeometry width="50" height="50" relative="1" as="geometry">
            <mxPoint x="730" y="430" as="sourcePoint" />
            <mxPoint x="550" y="360" as="targetPoint" />
          </mxGeometry>
        </mxCell>
        <mxCell id="0mBJ9B0nIkSUzQoLvOGi-182" value="" style="endArrow=classic;html=1;rounded=0;exitX=0;exitY=0.917;exitDx=0;exitDy=0;exitPerimeter=0;" parent="1" source="0mBJ9B0nIkSUzQoLvOGi-143" edge="1">
          <mxGeometry width="50" height="50" relative="1" as="geometry">
            <mxPoint x="660" y="385" as="sourcePoint" />
            <mxPoint x="560" y="460" as="targetPoint" />
          </mxGeometry>
        </mxCell>
        <mxCell id="0mBJ9B0nIkSUzQoLvOGi-183" value="" style="endArrow=classic;html=1;rounded=0;" parent="1" target="0mBJ9B0nIkSUzQoLvOGi-153" edge="1">
          <mxGeometry width="50" height="50" relative="1" as="geometry">
            <mxPoint x="730" y="480" as="sourcePoint" />
            <mxPoint x="870" y="750" as="targetPoint" />
          </mxGeometry>
        </mxCell>
      </root>
    </mxGraphModel>
  </diagram>
</mxfile>
